<?xml version="1.0" standalone="no"?>
<!DOCTYPE svg PUBLIC "-//W3C//DTD SVG 1.1//EN"
"http://www.w3.org/Graphics/SVG/1.1/DTD/svg11.dtd">
<svg xmlns="http://www.w3.org/2000/svg" version="1.1"
xmlns:xlink="http://www.w3.org/1999/xlink"
width="535" height="492" viewBox="0 0 535 492">

<defs>
<linearGradient id="lingrad" x1="0%" y1="0%" x2="0%" y2="100%">
	<stop offset="0%" style="stop-color:rgb(255,0,0);stop-opacity:1"/>
	<stop offset="100%" style="stop-color:rgb(255,255,0);stop-opacity:1"/>
</linearGradient>

<radialGradient id="radgrad" cx="50%" cy="50%" r="50%" fx="50%" fy="50%">
	<stop offset="0%" style="stop-color:rgb(200,200,200); stop-opacity:0"/>
	<stop offset="100%" style="stop-color:rgb(0,255,255); stop-opacity:1"/>
</radialGradient>

<pattern id="scales" patternUnits="userSpaceOnUse" x="0" y="0" width="25" height="25">
	<g style="fill:none; stroke:url(#radgrad); stroke-width:1">
		<path d="M0 0 C12,12 20,24 0,24"/>
	</g>
</pattern>

<pattern id="hatch" patternUnits="userSpaceOnUse" x="0" y="0" width="25" height="25">
	<g style="fill:none; stroke:black; stroke-width:1">
		<path d="M0 0 L12,12 L0,24"/>
	</g>
</pattern>

<marker id="marker" viewBox="0 0 20 20" refX="0" refY="0" markerWidth="4" markerHeight="4" stroke="blue" stroke-width="2" fill="none" orient="auto">
	<circle cx="10" cy="10" r="10" stroke="black" stroke-width="2" fill="red"/>
</marker>
</defs>

<style type="text/css" > <![CDATA[
path.fill_00 {
	fill: rgb(0,255,0);
	fill-opacity: 1;
	stroke: none;
	stroke-width: 0;
	stroke-opacity: 1;
	stroke-linecap: round;
	stroke-linejoin: round;
}
path.stroke_00 {
	fill: none;
	fill-opacity: 1;
	stroke: rgb(0,0,0);
	stroke-width: 3;
	stroke-opacity: 1;
	stroke-linecap: round;
	stroke-linejoin: round;
}
path.marker_00 {
	fill: none;
	stroke: none;
	marker-start: url(#marker);
	marker-mid: url(#marker);
	marker-end: url(#marker);
}

path.fill_01 {
	fill: rgb(21,0,255);
	fill-opacity: 1;
	stroke: none;
	stroke-width: 0;
	stroke-opacity: 1;
	stroke-linecap: round;
	stroke-linejoin: round;
}
path.stroke_01 {
	fill: none;
	fill-opacity: 1;
	stroke: rgb(0,0,0);
	stroke-width: 3;
	stroke-opacity: 1;
	stroke-linecap: round;
	stroke-linejoin: round;
}
path.marker_01 {
	fill: none;
	stroke: none;
	marker-start: url(#marker);
	marker-mid: url(#marker);
	marker-end: url(#marker);
}


]]> </style>

<mask id="mask_00">
<path style="fill:white" d="M0,0 L535,0 L535,492, L0,492"/>
</mask>
<g transform="translate(295.382 213.788) scale(1) translate(-295.382 -213.788)">
<path class="fill_00" d="M258.745,218.789 L259.857,217.847 L260.432,217.029 L261.059,216.618 L261.502,215.976 L262.445,215.497 L263.235,215.184 L263.196,214.835 L263.982,214.576 L261.899,214.768 L258.575,215.261 L255.086,215.741 L247.08,216.731 L244.006,216.97 L237.174,217.338 L235.777,217.249 L231.881,216.822 L230.78,216.663 L228.721,216.273 L227.62,215.899 L226.189,215.285 L224.722,214.103 L223.336,213.182 L221.659,211.461 L219.918,209.528 L217.863,207.504 L215.859,205.482 L214.474,204.439 L212.851,203.46 L211.236,202.825 L209.076,201.773 L207.311,201.223 L205.384,200.836 L203.262,200.808 L201.172,201.004 L198.726,201.417 L196.134,202.522 L193.528,203.964 L190.713,205.881 L187.617,208.858 L185.653,211.129 L182.753,215.782 L181.104,218.833 L178.935,223.519 L177.394,227.406 L176.143,230.825 L175.375,233.27 L174.225,236.85 L173.768,238.739 L172.894,242.398 L172.395,245.595 L172.238,248.126 L172.577,252.366 L172.807,254.447 L173.454,256.889 L174.148,259.726 L174.807,261.876 L175.902,265.671 L177.372,269.427 L178.193,271.337 L180.366,276.014 L181.365,278.032 L183.574,282.46 L185.45,285.673 L187.317,288.484 L189.37,291.239 L190.936,292.92 L192.844,295.178 L195.008,297.331 L197.72,299.914 L201.387,302.796 L203.394,304.258 L208.126,307.052 L209.608,307.721 L215.653,310.224 L217.156,310.765 L223.824,312.759 L226.694,313.387 L233.921,315.048 L238.199,315.802 L245.603,317.046 L249.669,317.438 L256.41,318.161 L263.007,318.462 L267.81,318.764 L273.067,318.908 L278.266,319.081 L282.317,319.067 L288.815,319.1 L293.157,318.87 L298.523,318.479 L302.962,317.876 L307.757,317.164 L312.453,316.098 L316.918,314.816 L319.709,313.982 L324.534,312.051 L326.014,311.204 L329.631,309.136 L331.852,307.622 L333.523,306.481 L335.911,304.414 L336.703,303.661 L339.038,301.265 L341.023,298.983 L342.646,297.091 L344.273,295.024 L345.317,293.224 L346.188,291.636 L347.277,289.611 L348.582,286.822 L349.122,285.799 L349.829,284.078 L350.198,282.948 L350.707,280.893 L351.302,278.793 L351.978,275.913 L352.296,273.904 L352.572,271.866 L352.901,269.524 L353.12,267.727 L353.374,265.929 L353.371,264.047 L353.381,262.107 L353.232,260.12 L352.843,257.406 L352.548,255.889 L352.002,253.783 L351.662,251.828 L351.152,249.798 L350.672,247.795 L349.553,245.029 L349.053,243.965 L348.128,242.14 L346.916,240.206 L346.438,239.453 L344.839,237.117 L343.586,235.597 L341.286,232.878 L339.591,230.913 L337.769,228.956 L337.322,228.475 L335.142,226.733 L334.011,225.867 L331.114,223.576 L329.357,222.266 L327.349,220.955 L325.366,219.767 L323.392,218.802 L322.039,218.096 L320.805,217.491 L320.278,217.166 L319.971,216.954 L319.994,217.131 L320.014,217.143 L320.066,217.304 L320.039,217.121 L320.089,217.115 L319.822,217.04 L320.086,217.255 L320.158,217.195 L321.347,216.454 L322.426,215.626 L324.562,214.136 L325.535,213.421 L326.865,212.636 L329.381,210.15 L330.543,208.974 L333.256,206.161 L335.475,203.232 L336.558,201.501 L338.649,198.275 L339.279,197.208 L339.754,196.143 L340.564,195.859 L340.93,195.407 L342.129,195.258 L342.818,195.056 L346.669,194.548 L348.426,194.295 L353.044,193.725 L355.846,193.923 L358.406,193.889 L361.87,193.898 L363.052,193.829 L364.863,191.648 L364.924,191.061 L365.04,188.83 L364.383,188.371 L364.281,188.005 L363.477,187.219 L362.898,186.467 L362.1,185.551 L360.63,184.546 L358.408,183.307 L356.634,182.405 L352.662,180.96 L350.444,180.234 L348.418,179.12 L348.193,178.291 L348.791,177.452 L351.605,175.954 L353.725,174.51 L356.262,173.025 L357.772,171.869 L358.399,171.271 L358.519,171.03 L359.315,169.727 L357.994,170.515 L356.1,170.633 L353.819,172.226 L349.931,173.674 L348.966,174.172 L346.462,175.823 L345.394,176.931 L344.503,178.198 L343.708,179.046 L343.752,180.047 L343.911,180.419 L343.981,181.66 L344.507,182.202 L344.466,182.654 L345.487,183.558 L345.794,183.876 L347.75,184.932 L348.898,185.327 L350.318,185.893 L351.024,186.227 L352.465,185.959 L353.293,185.61 L355.189,185.002 L356.343,184.236 L357.775,183.22 L360.328,181.137 L361.573,180.054 L364.608,176.731 L365.413,175.55 L367.705,171.458 L368.759,168.837 L370.078,165.14 L371.007,162.024 L371.533,160.119 L371.973,158.342 L371.165,156.603 L370.697,156.026 L368.245,154.348 L367.453,154.215 L365.064,154.186 L363.8,154.692 L362.503,155.178 L361.011,156.004 L358.704,157.907 L357.126,159.111 L355.013,160.795 L354.234,161.301 L353.365,161.308 L351.082,160.727 L349.075,160.403 L345.221,159.087 L343.508,158.615 L341.654,158.004 L341.13,157.731 L340.663,156.95 L339.538,154.882 L338.062,152.52 L335.043,147.923 L333.494,145.627 L330.966,142.254 L328.645,139.707 L326.614,137.89 L322.96,134.549 L320.915,133.15 L317.359,130.811 L315.056,129.663 L310.916,127.775 L308.529,126.894 L304.113,125.52 L302.231,125.073 L297.409,124.202 L295.451,124.025 L289.55,123.824 L287.003,123.981 L280.149,124.694 L277.692,125.161 L271.367,126.651 L269.833,127.162 L264.424,129.304 L263.389,129.838 L258.454,132.611 L257.555,133.205 L253.381,136.253 L251.245,138.217 L248.653,140.536 L246.675,142.527 L244.715,145.105 L242.697,148.071 L240.72,150.945 L239.14,153.468 L237.667,156.935 L236.65,159.908 L235.14,164.211 L234.226,168.916 L234.016,173.654 L233.756,177.722 L233.97,182.174 L234.862,186.639 L235.688,189.699 L237.912,196.282 L238.64,198.266 L239.958,201.085 L239.961,201.09 L242.442,204.313 L243.633,205.698 L248.571,211.158 L251.081,213.48 L254.42,216.862 L256.286,218.862 L257.094,220.102 L257.415,220.745 L257.462,220.771 L257.184,220.353 L257.431,220.426 L257.063,219.937 L257.448,220.119 L258.264,219.216 L258.745,218.789 "/>
</g>
<mask id="mask_01">
<path style="fill:white" d="M0,0 L535,0 L535,492, L0,492"/>
</mask>
<g transform="translate(246.5 244.891) scale(1) translate(-246.5 -244.891)">
<path class="fill_01" d="M259.857,217.846 L260.432,217.029 L261.058,216.618 L261.014,216.211 L261.67,215.861 L259.389,216.218 L258.305,216.294 L255.606,216.705 L253.814,217.058 L249.046,217.57 L246.965,217.853 L240.846,218.641 L239.211,218.887 L235.684,219.499 L232.744,219.438 L230.716,219.662 L228.467,219.605 L227.538,219.88 L224.838,220.302 L222.416,220.862 L219.446,221.242 L218.001,221.507 L215.954,221.407 L214.634,221.568 L211.939,222.134 L210.666,220.855 L209.685,220.923 L209.234,219.084 L208.58,217.488 L207.9,216.421 L206.71,213.492 L205.903,211.812 L205.254,209.83 L204.904,207.791 L204.785,206.992 L204.462,205.419 L204.113,204.426 L203.547,203.657 L202.767,202.691 L201.824,202.093 L200.988,201.806 L199.348,201.491 L198.453,201.702 L195.762,202.645 L193.649,204.002 L190.699,205.897 L187.65,208.823 L185.613,211.212 L182.85,215.629 L180.548,219.99 L179.074,222.948 L177.68,225.674 L176.552,229.248 L176.175,230.523 L174.859,234.689 L174.033,237.376 L173.604,238.906 L172.809,242.512 L172.549,244.275 L172.438,247.576 L172.283,249.626 L172.349,251.928 L173.216,255.536 L173.61,256.897 L176.067,263.34 L176.738,264.859 L178.769,269.344 L180.499,273.317 L181.397,275.184 L184.641,281.325 L186.434,283.577 L188.741,286.656 L190.925,288.603 L193.609,290.345 L195.681,291.668 L200.165,294.467 L201.68,295.232 L204.235,296.605 L206.041,297.03 L207.03,297.268 L208.018,296.987 L207.721,295.908 L206.857,294.408 L206.221,292.698 L206.786,292.224 L208.266,292.224 L212.307,293.962 L218.075,295.322 L222.077,296.778 L226.028,297.362 L226.667,297.493 L235.054,298.711 L239.105,298.95 L250.023,299.979 L256.036,299.645 L259.97,299.381 L264.184,299.112 L267.038,298.62 L269.93,297.911 L275.397,297.01 L279.17,296.051 L285.032,295.477 L289.093,295.231 L292.477,294.72 L296.968,293.791 L301.835,291.234 L304.916,289.845 L309.201,287.311 L310.423,284.799 L311.129,283.11 L313.008,279.607 L314.134,277.575 L315.434,275.337 L316.56,272.796 L317.614,270.402 L318.96,267.914 L319.643,265.365 L321.139,262.793 L321.378,261.205 L322.247,259.686 L323.12,257.841 L324.116,255.796 L325.02,253.86 L325.109,250.911 L325.204,250.302 L325.057,247.197 L325.165,245.936 L325.502,243.335 L325.158,241.524 L324.65,240.031 L324.01,237.902 L323.502,237.069 L322.385,235.103 L321.582,234.023 L320.708,232.8 L319.457,230.196 L318.915,229.376 L316.02,227.389 L313.025,226.894 L309.616,226.738 L307.039,226.454 L304.597,226.502 L301.644,226.607 L298.966,226.617 L293.596,226.69 L291.296,226.519 L286.503,226.43 L284.096,226.236 L279.742,225.786 L277.545,225.535 L272.945,224.852 L271.257,224.521 L267.889,223.968 L266.144,223.343 L263.357,222.793 L261.879,222.262 L260.444,222.051 L259.188,221.656 L258.566,221.391 L257.39,220.917 L257.011,220.575 L257.117,220.667 L257.102,220.629 L257.447,220.778 L257.189,220.398 L257.428,220.435 L257.073,219.979 L257.448,220.119 L258.264,219.216 L258.745,218.789 L259.857,217.846 "/>
</g>
<g transform="translate(275.312 170.417) scale(1) translate(-275.312 -170.417)">
<path class="fill_01" d="M245.581,202.522 L248.114,204.493 L250.68,206.013 L253.07,207.342 L256.108,208.796 L258.79,209.049 L260.619,209.567 L262.182,209.274 L264.771,209.459 L266.868,209.119 L271.01,208.967 L273.329,208.409 L276.566,207.924 L278.682,207.636 L281.028,207.27 L283.582,206.09 L285.34,205.601 L289.333,204.142 L291.421,203.664 L294.768,202.629 L296.069,201.624 L298.679,200.262 L301.056,198.24 L303.537,196.568 L306.173,193.595 L307.697,191.652 L308.494,188.535 L309.469,186.288 L308.889,183.19 L309.893,180.061 L309.55,175.641 L310.03,171.882 L309.506,168.019 L309.234,164.167 L309.302,161.481 L309.413,157.544 L310.286,155.059 L311.041,152.217 L312.343,149.118 L313.778,146.908 L314.207,143.73 L314.355,141.544 L313.027,139.415 L311.111,137.229 L308.927,135.007 L306.15,133.073 L304.087,131.231 L299.87,128.953 L298.16,128.176 L292.254,126.241 L289.884,125.802 L283.914,125.342 L280.961,125.348 L276.004,126.049 L273.586,126.395 L270.139,127.288 L268.288,127.807 L264.665,129.303 L263.094,130.01 L258.467,132.608 L257.507,133.243 L253.385,136.252 L251.181,138.279 L248.645,140.544 L246.667,142.521 L244.722,145.095 L242.74,148.01 L240.721,150.946 L239.139,153.479 L237.668,156.926 L236.638,159.936 L235.162,164.014 L234.219,168.929 L234.016,172.626 L233.79,177.734 L233.999,181.442 L234.91,186.433 L235.832,188.952 L237.284,193.069 L238.925,195.56 L240.305,197.411 L241.909,199.354 L243.859,201.213 L245.581,202.522 "/>
</g>
<path class="stroke_00" d="M255.086,215.741 L247.08,216.731 L244.006,216.97 L237.174,217.338 L235.777,217.249 L231.881,216.822 L230.78,216.663 L228.721,216.273 L227.62,215.899 L226.189,215.285 L224.722,214.103 L223.336,213.182 L221.659,211.461 L219.918,209.528 L217.863,207.504 L215.859,205.482 L214.474,204.439 L212.851,203.46 L211.236,202.825 L209.076,201.773 L207.311,201.223 L205.384,200.836 L203.262,200.808 L201.172,201.004 L198.726,201.417 L196.134,202.522 L193.528,203.964 L190.713,205.881 L187.617,208.858 L185.653,211.129 L182.753,215.782 L181.104,218.833 L178.935,223.519 L177.394,227.406 L176.143,230.825 L175.375,233.27 L174.225,236.85 L173.768,238.739 L172.894,242.398 L172.395,245.595 L172.238,248.126 L172.577,252.366 L172.807,254.447 L173.454,256.889 L174.148,259.726 L174.807,261.876 L175.902,265.671 L177.372,269.427 L178.193,271.337 L180.366,276.014 L181.365,278.032 L183.574,282.46 L185.45,285.673 L187.317,288.484 L189.37,291.239 L190.936,292.92 L192.844,295.178 L195.008,297.331 L197.72,299.914 L201.387,302.796 L203.394,304.258 L208.126,307.052 L209.608,307.721 L215.653,310.224 L217.156,310.765 L223.824,312.759 L226.694,313.387 L233.921,315.048 L238.199,315.802 L245.603,317.046 L249.669,317.438 L256.41,318.161 L263.007,318.462 L267.81,318.764 L273.067,318.908 L278.266,319.081 L282.317,319.067 L288.815,319.1 L293.157,318.87 L298.523,318.479 L302.962,317.876 L307.757,317.164 L312.453,316.098 L316.918,314.816 L319.709,313.982 L324.534,312.051 L326.014,311.204 L329.631,309.136 L331.852,307.622 L333.523,306.481 L335.911,304.414 L336.703,303.661 L339.038,301.265 L341.023,298.983 L342.646,297.091 L344.273,295.024 L345.317,293.224 L346.188,291.636 L347.277,289.611 L348.582,286.822 L349.122,285.799 L349.829,284.078 L350.198,282.948 L350.707,280.893 L351.302,278.793 L351.978,275.913 L352.296,273.904 L352.572,271.866 L352.901,269.524 L353.12,267.727 L353.374,265.929 L353.371,264.047 L353.381,262.107 L353.232,260.12 L352.843,257.406 L352.548,255.889 L352.002,253.783 L351.662,251.828 L351.152,249.798 L350.672,247.795 L349.553,245.029 L349.053,243.965 L348.128,242.14 L346.916,240.206 L346.438,239.453 L344.839,237.117 L343.586,235.597 L341.286,232.878 L339.591,230.913 L337.769,228.956 L337.322,228.475 L335.142,226.733 L334.011,225.867 L331.114,223.576 L329.357,222.266 L327.349,220.955 L325.366,219.767 L323.392,218.802 L322.039,218.096 L320.805,217.491 L320.278,217.166 "/>
<path class="stroke_00" d="M320.014,217.143 L320.066,217.304 L320.039,217.121 L320.089,217.115 L319.822,217.04 L320.086,217.255 L320.158,217.195 L321.347,216.454 L322.426,215.626 L324.562,214.136 L325.535,213.421 L326.865,212.636 L329.381,210.15 L330.543,208.974 L333.256,206.161 L335.475,203.232 L336.558,201.501 L338.649,198.275 L339.279,197.208 L339.754,196.143 L340.564,195.859 L340.93,195.407 L342.129,195.258 L342.818,195.056 L346.669,194.548 L348.426,194.295 L353.044,193.725 L355.846,193.923 L358.406,193.889 L361.87,193.898 L363.052,193.829 L364.863,191.648 L364.924,191.061 L365.04,188.83 L364.383,188.371 L364.281,188.005 L363.477,187.219 L362.898,186.467 L362.1,185.551 L360.63,184.546 L358.408,183.307 "/>
<path class="stroke_00" d="M353.293,185.61 L355.189,185.002 L356.343,184.236 L357.775,183.22 L360.328,181.137 L361.573,180.054 L364.608,176.731 L365.413,175.55 L367.705,171.458 L368.759,168.837 L370.078,165.14 L371.007,162.024 L371.533,160.119 L371.973,158.342 L371.165,156.603 L370.697,156.026 L368.245,154.348 L367.453,154.215 L365.064,154.186 L363.8,154.692 L362.503,155.178 L361.011,156.004 L358.704,157.907 L357.126,159.111 L355.013,160.795 L354.234,161.301 L353.365,161.308 L351.082,160.727 L349.075,160.403 L345.221,159.087 L343.508,158.615 L341.654,158.004 L341.13,157.731 L340.663,156.95 L339.538,154.882 L338.062,152.52 L335.043,147.923 L333.494,145.627 L330.966,142.254 L328.645,139.707 L326.614,137.89 L322.96,134.549 L320.915,133.15 L317.359,130.811 L315.056,129.663 L310.916,127.775 L308.529,126.894 L304.113,125.52 L302.231,125.073 L297.409,124.202 L295.451,124.025 L289.55,123.824 L287.003,123.981 L280.149,124.694 L277.692,125.161 L271.367,126.651 L269.833,127.162 L264.424,129.304 L263.389,129.838 L258.454,132.611 L257.555,133.205 L253.381,136.253 L251.245,138.217 L248.653,140.536 L246.675,142.527 L244.715,145.105 L242.697,148.071 L240.72,150.945 L239.14,153.468 L237.667,156.935 L236.65,159.908 L235.14,164.211 L234.226,168.916 L234.016,173.654 L233.756,177.722 L233.97,182.174 L234.862,186.639 L235.688,189.699 L237.912,196.282 L238.64,198.266 L239.958,201.085 L239.961,201.09 L242.442,204.313 L243.633,205.698 L248.571,211.158 L251.081,213.48 L254.42,216.862 L256.286,218.862 L257.094,220.102 L257.415,220.745 L257.462,220.771 L257.184,220.353 L257.431,220.426 "/>
<path class="stroke_00" d="M257.448,220.119 "/>
<path class="stroke_01" d="M249.046,217.57 L246.965,217.853 L240.846,218.641 L239.211,218.887 L235.684,219.499 L232.744,219.438 L230.716,219.662 L228.467,219.605 L227.538,219.88 L224.838,220.302 L222.416,220.862 L219.446,221.242 L218.001,221.507 L215.954,221.407 L214.634,221.568 L211.939,222.134 L210.666,220.855 L209.685,220.923 L209.234,219.084 L208.58,217.488 L207.9,216.421 L206.71,213.492 L205.903,211.812 L205.254,209.83 L204.904,207.791 L204.785,206.992 L204.462,205.419 L204.113,204.426 L203.547,203.657 L202.767,202.691 L201.824,202.093 L200.988,201.806 L199.348,201.491 L198.453,201.702 L195.762,202.645 L193.649,204.002 L190.699,205.897 L187.65,208.823 L185.613,211.212 L182.85,215.629 L180.548,219.99 L179.074,222.948 L177.68,225.674 L176.552,229.248 L176.175,230.523 L174.859,234.689 L174.033,237.376 L173.604,238.906 L172.809,242.512 L172.549,244.275 L172.438,247.576 L172.283,249.626 L172.349,251.928 L173.216,255.536 L173.61,256.897 L176.067,263.34 L176.738,264.859 L178.769,269.344 L180.499,273.317 L181.397,275.184 L184.641,281.325 L186.434,283.577 L188.741,286.656 L190.925,288.603 L193.609,290.345 L195.681,291.668 L200.165,294.467 L201.68,295.232 L204.235,296.605 L206.041,297.03 L207.03,297.268 L208.018,296.987 L207.721,295.908 L206.857,294.408 L206.221,292.698 L206.786,292.224 L208.266,292.224 L212.307,293.962 L218.075,295.322 L222.077,296.778 L226.028,297.362 L226.667,297.493 L235.054,298.711 L239.105,298.95 L250.023,299.979 L256.036,299.645 L259.97,299.381 L264.184,299.112 L267.038,298.62 L269.93,297.911 L275.397,297.01 L279.17,296.051 L285.032,295.477 L289.093,295.231 L292.477,294.72 L296.968,293.791 L301.835,291.234 L304.916,289.845 L309.201,287.311 L310.423,284.799 L311.129,283.11 L313.008,279.607 L314.134,277.575 L315.434,275.337 L316.56,272.796 L317.614,270.402 L318.96,267.914 L319.643,265.365 L321.139,262.793 L321.378,261.205 L322.247,259.686 L323.12,257.841 L324.116,255.796 L325.02,253.86 L325.109,250.911 L325.204,250.302 L325.057,247.197 L325.165,245.936 L325.502,243.335 L325.158,241.524 L324.65,240.031 L324.01,237.902 L323.502,237.069 L322.385,235.103 L321.582,234.023 L320.708,232.8 L319.457,230.196 L318.915,229.376 L316.02,227.389 L313.025,226.894 L309.616,226.738 L307.039,226.454 L304.597,226.502 L301.644,226.607 L298.966,226.617 L293.596,226.69 L291.296,226.519 L286.503,226.43 L284.096,226.236 L279.742,225.786 L277.545,225.535 L272.945,224.852 L271.257,224.521 L267.889,223.968 L266.144,223.343 L263.357,222.793 L261.879,222.262 L260.444,222.051 L259.188,221.656 L258.566,221.391 L257.39,220.917 L257.011,220.575 L257.117,220.667 "/>
<path class="stroke_01" d="M245.581,202.522 L248.114,204.493 L250.68,206.013 L253.07,207.342 L256.108,208.796 L258.79,209.049 L260.619,209.567 L262.182,209.274 L264.771,209.459 L266.868,209.119 L271.01,208.967 L273.329,208.409 L276.566,207.924 L278.682,207.636 L281.028,207.27 L283.582,206.09 L285.34,205.601 L289.333,204.142 L291.421,203.664 L294.768,202.629 L296.069,201.624 L298.679,200.262 L301.056,198.24 L303.537,196.568 L306.173,193.595 L307.697,191.652 L308.494,188.535 L309.469,186.288 L308.889,183.19 L309.893,180.061 L309.55,175.641 L310.03,171.882 L309.506,168.019 L309.234,164.167 L309.302,161.481 L309.413,157.544 L310.286,155.059 L311.041,152.217 L312.343,149.118 L313.778,146.908 L314.207,143.73 L314.355,141.544 L313.027,139.415 L311.111,137.229 L308.927,135.007 L306.15,133.073 L304.087,131.231 L299.87,128.953 L298.16,128.176 L292.254,126.241 L289.884,125.802 L283.914,125.342 L280.961,125.348 L276.004,126.049 L273.586,126.395 L270.139,127.288 L268.288,127.807 L264.665,129.303 L263.094,130.01 L258.467,132.608 L257.507,133.243 L253.385,136.252 L251.181,138.279 L248.645,140.544 L246.667,142.521 L244.722,145.095 L242.74,148.01 L240.721,150.946 L239.139,153.479 L237.668,156.926 L236.638,159.936 L235.162,164.014 L234.219,168.929 L234.016,172.626 L233.79,177.734 L233.999,181.442 L234.91,186.433 L235.832,188.952 L237.284,193.069 L238.925,195.56 L240.305,197.411 L241.909,199.354 L243.859,201.213 L245.581,202.522 "/>

</svg>
